<svg width="459" height="113" viewBox="0 0 459 113" fill="none" xmlns="http://www.w3.org/2000/svg">
<path d="M164.51 16.6573H228.078V1.12549H146.611V61.3767H228.078V46.1451H164.51V16.6573ZM146.611 111.424H228.078V95.8918H146.611V111.424Z" fill="url(#paint0_linear_29_7)"/>
<path d="M242.451 112.249V59.3509L260.35 79.1594V112.249H242.451ZM242.451 24.6107V0L328.458 93.7908V1.83826H345.683V112.587H322.192L242.413 24.6483L242.451 24.6107Z" fill="white"/>
<path d="M413.115 1.05042H458.559V16.6948H415.029C409.776 16.6948 404.822 17.7452 400.169 19.8086C395.516 21.872 391.501 24.7232 388.049 28.3248C384.596 31.9263 381.857 36.0907 379.868 40.8927C377.842 45.6948 376.866 50.7971 376.866 56.1995C376.866 61.6018 377.879 66.7416 379.868 71.5812C381.895 76.4208 384.596 80.6226 388.049 84.2242C391.501 87.8258 395.554 90.6393 400.169 92.7402C404.822 94.8036 409.776 95.8542 415.029 95.8542H458.559V111.498H413.115C397.918 111.498 388.086 108.197 375.628 96.7172C370.449 91.9151 367.034 85.4997 364.258 78.5216C361.481 71.5436 360.092 64.1154 360.092 56.1995C360.092 48.2835 361.481 40.8927 364.258 33.9522C367.034 27.0492 370.562 20.709 375.628 15.8319C385.309 6.56533 397.43 1.05042 413.115 1.05042ZM458.559 77.6588H440.659V62.5772H407.524V47.3456H458.521V77.6588H458.559Z" fill="white"/>
<path d="M17.8994 112.249V79.1594L0 59.3509V112.249H17.8994ZM115.353 42.8062V112.549H132.239V0L66.1944 71.9939L0.150019 0V24.6107L66.1944 97.3549L115.353 42.8062Z" fill="white"/>
<defs>
<linearGradient id="paint0_linear_29_7" x1="139.406" y1="104.22" x2="235.26" y2="8.30584" gradientUnits="userSpaceOnUse">
<stop stop-color="#EE3062"/>
<stop offset="1" stop-color="#A1499B"/>
</linearGradient>
</defs>
</svg>
