<svg width="343" height="445" viewBox="0 0 343 445" fill="none" xmlns="http://www.w3.org/2000/svg">
<path d="M22.5151 390.121V71.9936C22.5151 48.6734 33.428 14.4527 84.8143 12.3257C125.939 10.6166 139.838 47.1542 141.676 65.6508V202.989L227.831 126.002C240.658 117.874 273.129 107.506 300.353 130.94C327.578 154.374 313.066 185.67 302.383 198.394L221.359 269L332.365 362.547C348.715 371.738 347.681 424.683 311.611 438.47C282.74 449.485 258.501 439.534 250.001 433.191L141.753 343.86V377.055C143.131 387.044 141.6 411.086 124.713 427.19C103.615 447.32 82.1723 447.661 53.9137 438.47C31.3221 431.14 23.6255 403.148 22.5917 390.083L22.5151 390.121Z" fill="#939598"/>
<path d="M0 377.853V59.7257C0 36.4055 10.9128 2.18485 62.2991 0.0579263C103.423 -1.65121 117.323 34.8863 119.161 53.3829V190.721L205.315 113.734C218.143 105.606 250.613 95.2377 277.838 118.672C305.063 142.106 290.551 173.402 279.868 186.126L198.844 256.732L309.849 350.279C326.2 359.47 325.166 412.415 289.096 426.202C260.224 437.217 235.986 427.266 227.486 420.923L119.238 331.592V364.787C120.616 374.776 119.084 398.818 102.198 414.922C81.1 435.052 59.6571 435.394 31.3985 426.202C8.80694 418.872 1.11039 390.88 0.0765396 377.815L0 377.853Z" fill="white"/>
</svg>
